<?xml version="1.0" standalone="no"?>
<!DOCTYPE svg PUBLIC "-//W3C//DTD SVG 20010904//EN"
 "http://www.w3.org/TR/2001/REC-SVG-20010904/DTD/svg10.dtd">
<svg version="1.0" xmlns="http://www.w3.org/2000/svg"
 width="800.000000pt" height="334.000000pt" viewBox="0 0 800.000000 334.000000"
 preserveAspectRatio="xMidYMid meet">
<metadata>
Created by potrace 1.15, written by Peter Selinger 2001-2017
</metadata>
<g transform="translate(0.000000,334.000000) scale(0.100000,-0.100000)"
fill="#000000" stroke="none">
<path d="M3820 3324 c-19 -2 -78 -9 -130 -15 -337 -39 -724 -204 -1000 -427
-72 -57 -200 -179 -200 -189 0 -5 14 -23 31 -41 l30 -33 87 82 c303 287 685
468 1095 519 129 16 379 13 504 -5 394 -59 757 -234 1044 -503 42 -40 81 -72
86 -72 5 0 22 14 38 30 l29 30 -54 56 c-125 127 -311 259 -500 354 -201 100
-391 162 -606 195 -97 15 -386 27 -454 19z"/>
<path d="M3586 3089 c-76 -16 -145 -34 -152 -40 -8 -6 -14 -25 -14 -41 0 -49
70 -371 85 -395 19 -29 52 -49 92 -58 32 -6 246 28 272 44 9 6 10 18 0 57 -7
27 -13 50 -15 52 -1 2 -52 -7 -114 -19 -124 -25 -134 -22 -146 36 l-6 30 116
24 c96 20 116 27 112 40 -3 9 -8 33 -12 54 -3 20 -12 37 -19 37 -7 0 -57 -9
-110 -20 -53 -11 -100 -20 -104 -20 -13 0 -29 89 -17 93 6 2 57 12 113 22 56
10 107 21 113 25 9 6 10 21 4 56 -11 62 -14 62 -198 23z"/>
<path d="M4296 3070 c-43 -13 -74 -47 -90 -99 -29 -90 -86 -319 -86 -345 0
-29 30 -53 74 -58 29 -3 30 -3 55 98 l26 101 105 -28 c58 -16 110 -29 116 -29
15 0 38 102 24 110 -6 4 -55 17 -110 30 -108 25 -113 31 -88 85 14 31 26 31
160 -5 48 -13 90 -22 92 -19 9 9 30 98 24 104 -9 10 -176 53 -226 59 -26 2
-60 1 -76 -4z"/>
<path d="M2966 2845 l-38 -34 85 -104 c143 -174 160 -210 121 -266 -21 -30
-87 -59 -119 -53 -27 5 -83 63 -185 190 -36 45 -72 81 -80 81 -17 0 -80 -53
-80 -68 0 -15 207 -268 238 -290 107 -75 264 -31 339 96 32 56 36 139 8 193
-28 55 -218 289 -235 289 -8 0 -32 -15 -54 -34z"/>
<path d="M4785 2633 c-126 -82 -230 -153 -232 -159 -4 -11 76 -64 96 -64 6 0
76 43 156 95 80 52 145 92 145 90 0 -3 -7 -32 -16 -64 -16 -56 -18 -59 -39
-49 -18 8 -30 5 -64 -16 -36 -23 -55 -55 -33 -56 4 -1 24 -15 45 -33 l38 -33
-16 -44 -15 -44 42 -43 c23 -24 47 -43 53 -43 12 0 156 502 155 542 0 29 -40
68 -70 68 -9 0 -120 -66 -245 -147z"/>
<path d="M3835 2484 c-205 -23 -418 -103 -584 -221 -76 -55 -201 -171 -201
-187 0 -6 12 -24 26 -40 l25 -28 72 69 c95 91 182 152 298 207 432 207 929
123 1273 -216 l79 -78 29 27 c15 15 28 31 28 36 0 16 -112 127 -185 182 -145
111 -305 185 -485 226 -84 18 -295 31 -375 23z"/>
<path d="M418 1909 c-117 -12 -193 -45 -269 -116 -102 -96 -149 -206 -149
-353 0 -148 43 -253 142 -347 88 -82 192 -123 313 -123 110 0 271 54 293 97 9
18 25 163 18 163 -2 0 -30 -16 -62 -35 -195 -117 -377 -70 -466 122 -28 60
-30 70 -26 156 5 106 26 163 79 216 47 48 110 73 180 73 101 0 175 -52 198
-140 5 -19 15 -28 33 -30 l26 -3 -5 143 c-4 87 -10 146 -17 150 -34 23 -189
37 -288 27z"/>
<path d="M7565 1853 c-176 -38 -262 -128 -253 -267 8 -125 70 -177 296 -248
151 -48 182 -68 182 -123 0 -70 -79 -112 -195 -102 -107 8 -184 65 -207 153
-10 37 -16 44 -37 44 -24 0 -24 0 -17 -77 3 -42 6 -104 6 -138 l0 -63 68 -17
c88 -23 255 -31 333 -16 171 34 258 120 259 258 0 74 -9 99 -51 148 -43 49
-102 77 -249 119 -137 40 -166 55 -181 93 -27 72 53 129 170 121 106 -8 173
-52 203 -134 9 -25 18 -34 34 -34 22 0 22 1 17 123 -3 67 -8 125 -12 128 -26
27 -286 50 -366 32z"/>
<path d="M5645 1837 c-96 -32 -159 -77 -210 -151 -102 -148 -100 -357 5 -514
62 -93 138 -142 253 -163 174 -32 363 61 437 216 106 222 19 491 -190 589 -56
26 -78 31 -160 33 -59 2 -110 -2 -135 -10z m195 -146 c77 -38 133 -167 134
-306 1 -68 -3 -88 -27 -138 -59 -120 -198 -145 -291 -51 -113 115 -129 386
-28 477 53 48 140 55 212 18z"/>
<path d="M920 1815 c0 -17 6 -25 18 -25 41 0 42 -11 42 -359 0 -185 -4 -341
-8 -347 -4 -6 -17 -14 -29 -18 -15 -5 -23 -15 -23 -29 0 -22 2 -22 155 -22
151 0 155 1 155 21 0 12 -10 25 -25 32 l-25 12 0 150 0 150 140 0 140 0 0
-142 c0 -79 -4 -148 -8 -154 -4 -6 -17 -14 -29 -18 -15 -5 -23 -15 -23 -29 0
-22 2 -22 155 -22 154 0 155 0 155 22 0 16 -8 25 -25 29 l-25 6 2 357 3 356
23 3 c16 2 22 10 22 27 l0 24 -155 0 -155 0 0 -25 c0 -17 5 -24 20 -24 32 0
40 -32 40 -157 l0 -118 -140 3 -141 3 3 132 c3 128 4 132 26 135 16 2 22 10
22 27 l0 24 -155 0 -155 0 0 -24z"/>
<path d="M2125 1831 c-8 -14 6 -41 21 -41 8 0 17 -7 20 -15 3 -7 -54 -166
-128 -351 -114 -289 -137 -340 -160 -353 -16 -9 -28 -24 -28 -33 0 -16 13 -18
135 -18 128 0 135 1 135 20 0 13 -9 22 -25 26 -33 8 -32 29 2 127 l28 77 115
0 116 0 22 -68 c31 -96 29 -120 -8 -133 -19 -7 -30 -18 -30 -30 0 -18 9 -19
165 -19 148 0 165 2 165 17 0 9 -14 28 -30 42 -28 23 -44 66 -149 391 l-117
365 -122 2 c-67 1 -124 -2 -127 -6z m159 -321 c13 -52 27 -103 31 -112 6 -16
-1 -18 -70 -18 -42 0 -75 3 -73 8 2 4 21 58 43 119 22 62 41 109 42 105 2 -4
14 -50 27 -102z"/>
<path d="M2850 1815 c0 -18 6 -25 19 -25 39 0 42 -18 31 -216 -5 -104 -12
-243 -15 -309 -9 -174 -11 -185 -46 -197 -18 -6 -29 -17 -29 -29 0 -18 9 -19
141 -19 140 0 140 0 137 23 -2 15 -11 23 -28 25 -14 2 -29 8 -34 12 -10 10 -8
409 2 457 6 29 19 1 113 -245 l106 -277 60 -3 59 -3 95 280 c81 241 95 276
101 248 11 -53 32 -422 25 -441 -4 -9 -20 -22 -37 -27 -19 -7 -30 -18 -30 -30
0 -18 9 -19 165 -19 156 0 165 1 165 19 0 12 -11 23 -29 29 -26 9 -29 15 -35
69 -16 162 -47 626 -42 638 3 8 15 15 26 15 15 0 20 7 20 25 l0 25 -137 -3
-136 -2 -92 -274 -91 -273 -104 275 -105 276 -137 0 -138 0 0 -24z"/>
<path d="M4020 1812 c0 -24 5 -31 23 -34 l22 -3 3 -330 c1 -181 0 -340 -3
-351 -2 -12 -14 -24 -25 -27 -12 -3 -20 -13 -20 -26 0 -20 4 -21 166 -21 164
0 165 0 162 22 -2 14 -13 24 -32 29 -16 5 -33 14 -37 21 -5 7 -9 72 -9 145 l0
131 43 -21 c61 -30 173 -29 244 2 96 43 147 122 147 231 0 112 -53 192 -152
231 -52 21 -79 23 -294 27 l-238 4 0 -30z m420 -124 c54 -28 75 -76 65 -150
-12 -87 -67 -129 -172 -132 l-63 -2 0 147 c0 109 3 149 13 152 33 14 115 6
157 -15z"/>
<path d="M4870 1814 c0 -17 5 -24 20 -24 10 0 24 -9 30 -19 12 -23 14 -669 2
-687 -4 -6 -17 -14 -29 -18 -14 -4 -23 -15 -23 -27 0 -18 8 -19 155 -19 148 0
155 1 155 20 0 13 -9 22 -25 26 l-25 6 2 357 3 356 23 3 c16 2 22 10 22 27 l0
24 -155 0 -155 0 0 -25z"/>
<path d="M6350 1816 c0 -18 6 -25 23 -28 l22 -3 3 -353 2 -352 -25 -12 c-14
-6 -25 -19 -25 -30 0 -16 10 -18 125 -18 116 0 125 1 125 19 0 12 -11 23 -30
30 -17 5 -33 16 -35 23 -3 7 -4 130 -3 273 l3 259 193 -302 194 -302 74 0 74
0 2 383 3 382 28 3 c21 3 27 9 27 28 l0 24 -130 0 -130 0 0 -25 c0 -20 5 -25
24 -25 44 0 47 -14 44 -245 l-3 -218 -158 256 -159 257 -134 0 -134 0 0 -24z"/>
<path d="M4190 651 c-87 -27 -155 -83 -198 -165 -24 -46 -27 -61 -27 -156 0
-95 3 -111 28 -162 74 -151 250 -211 397 -135 28 15 53 27 55 27 1 0 6 -11 9
-25 5 -21 12 -25 41 -25 l35 0 0 125 c0 124 0 126 25 137 14 6 25 19 25 30 0
17 -10 18 -130 18 l-130 0 0 -24 c0 -19 6 -25 28 -28 25 -3 27 -6 30 -59 3
-51 0 -59 -24 -78 -63 -49 -162 -13 -205 76 -25 51 -37 155 -25 219 9 45 67
109 113 125 88 29 206 -15 220 -82 4 -22 11 -29 29 -29 22 0 24 4 23 43 0 23
-4 64 -7 92 -7 48 -9 50 -52 67 -48 18 -211 24 -260 9z"/>
<path d="M2020 631 c0 -10 9 -21 20 -24 19 -5 20 -14 20 -275 0 -261 -1 -270
-20 -275 -12 -3 -20 -14 -20 -26 0 -21 3 -21 244 -21 l243 0 6 59 c4 33 9 78
13 100 6 39 5 41 -20 41 -19 0 -26 -5 -26 -19 0 -11 -11 -33 -24 -48 -23 -27
-28 -28 -130 -31 l-106 -4 0 239 c0 248 2 263 42 263 11 0 18 7 18 20 0 19 -7
20 -130 20 -121 0 -130 -1 -130 -19z"/>
<path d="M2620 632 c0 -9 10 -22 23 -27 22 -10 22 -11 25 -273 l2 -262 -26
-10 c-16 -7 -24 -16 -22 -28 3 -16 25 -17 259 -20 l256 -2 7 61 c3 34 6 80 6
101 0 34 -3 39 -21 36 -14 -2 -25 -16 -34 -41 -7 -21 -16 -42 -20 -45 -4 -4
-60 -9 -126 -10 l-119 -4 0 91 0 91 75 0 c71 0 75 -1 81 -25 4 -16 13 -25 25
-25 17 0 19 9 19 100 0 93 -1 100 -20 100 -11 0 -20 -7 -20 -15 0 -23 -34 -35
-99 -35 l-61 0 0 85 0 85 109 0 c116 0 141 -9 141 -51 0 -14 7 -19 26 -19 25
0 26 2 20 38 -3 20 -6 56 -6 80 l0 42 -250 0 c-232 0 -250 -1 -250 -18z"/>
<path d="M3460 631 c0 -10 9 -21 20 -24 20 -5 20 -6 -4 -69 -123 -322 -180
-455 -202 -473 -13 -12 -24 -28 -24 -36 0 -12 18 -15 105 -14 102 0 105 1 105
23 0 15 -6 22 -20 22 -25 0 -25 11 2 88 l22 62 87 0 88 0 19 -62 c21 -69 20
-84 -9 -91 -10 -3 -19 -14 -19 -24 0 -17 10 -19 130 -19 114 0 130 2 130 17 0
9 -11 24 -24 33 -20 13 -41 66 -117 301 l-93 285 -98 0 c-89 0 -98 -2 -98 -19z"/>
<path d="M4710 631 c0 -10 9 -21 20 -24 19 -5 20 -14 20 -201 0 -232 9 -284
57 -337 49 -55 116 -73 242 -67 134 7 191 37 226 121 12 29 15 80 15 246 0
115 3 216 6 225 3 9 15 16 25 16 12 0 19 7 19 20 0 19 -7 20 -131 20 -119 0
-130 -2 -127 -17 2 -10 12 -19 23 -22 11 -2 23 -8 27 -15 13 -19 8 -397 -5
-436 -16 -45 -49 -62 -115 -57 -38 3 -60 10 -75 26 -21 21 -22 28 -22 249 l0
227 23 3 c14 2 22 10 22 23 0 18 -8 19 -125 19 -116 0 -125 -1 -125 -19z"/>
<path d="M5480 631 c0 -11 9 -23 20 -26 19 -6 20 -15 20 -276 0 -262 0 -269
-20 -269 -15 0 -20 -7 -20 -25 l0 -25 255 0 c196 0 257 3 260 13 2 6 5 51 8
100 3 85 3 87 -19 87 -19 0 -25 -8 -34 -40 -6 -22 -19 -44 -30 -50 -10 -5 -68
-10 -129 -10 l-111 0 0 90 0 90 76 0 c67 0 76 -2 81 -20 3 -11 14 -20 24 -20
17 0 19 9 19 95 0 86 -2 95 -19 95 -10 0 -21 -9 -24 -20 -5 -18 -14 -20 -81
-20 l-76 0 0 80 0 80 106 0 c116 0 139 -7 148 -45 4 -16 13 -25 26 -25 17 0
20 7 20 43 0 23 -3 59 -6 80 l-7 37 -243 0 c-235 0 -244 -1 -244 -19z"/>
</g>
</svg>
