<?xml version="1.0" encoding="UTF-8" standalone="no"?>
<svg
   xmlns:dc="http://purl.org/dc/elements/1.1/"
   xmlns:cc="http://creativecommons.org/ns#"
   xmlns:rdf="http://www.w3.org/1999/02/22-rdf-syntax-ns#"
   xmlns:svg="http://www.w3.org/2000/svg"
   xmlns="http://www.w3.org/2000/svg"
   xmlns:sodipodi="http://sodipodi.sourceforge.net/DTD/sodipodi-0.dtd"
   xmlns:inkscape="http://www.inkscape.org/namespaces/inkscape"
   version="1.0"
   width="66"
   height="42"
   viewBox="0 0 52.8 33.6"
   preserveAspectRatio="xMidYMid meet"
   id="svg2"
   inkscape:version="0.48.4 r9939"
   sodipodi:docname="2015 UEFA Europa League logo.svg">
  <title
     id="title3047">UEFA Europa League logo</title>
  <defs
     id="defs64" />
  <sodipodi:namedview
     pagecolor="#ffffff"
     bordercolor="#666666"
     borderopacity="1"
     objecttolerance="10"
     gridtolerance="10"
     guidetolerance="10"
     inkscape:pageopacity="0"
     inkscape:pageshadow="2"
     inkscape:window-width="1600"
     inkscape:window-height="844"
     id="namedview62"
     showgrid="false"
     inkscape:zoom="7.9878263"
     inkscape:cx="17.491891"
     inkscape:cy="19.481163"
     inkscape:window-x="-4"
     inkscape:window-y="-4"
     inkscape:window-maximized="1"
     inkscape:current-layer="svg2" />
  <metadata
     id="metadata4">
Created by potrace 1.12, written by Peter Selinger 2001-2015
<rdf:RDF>
  <cc:Work
     rdf:about="">
    <dc:format>image/svg+xml</dc:format>
    <dc:type
       rdf:resource="http://purl.org/dc/dcmitype/StillImage" />
    <dc:title>UEFA Europa League logo</dc:title>
  </cc:Work>
</rdf:RDF>
</metadata>
  <g
     transform="matrix(0.00279832,0,0,-0.00279627,-0.33335425,34.187806)"
     id="g6"
     style="fill:#000000;stroke:none">
    <path
       d="m 9070,12059 c -1481,-100 -2880,-667 -3993,-1621 -194,-166 -457,-418 -457,-436 0,-21 180,-202 201,-202 8,0 39,25 69,56 30,31 109,107 176,168 1925,1785 4699,2250 7101,1190 711,-314 1368,-759 1952,-1323 52,-50 99,-91 104,-91 13,0 206,183 207,196 0,14 -253,261 -400,390 -589,516 -1279,938 -1980,1211 -676,264 -1369,417 -2095,463 -185,12 -703,11 -885,-1 z"
       id="path26"
       inkscape:connector-curvature="0" />
    <path
       d="m 8325,11273 c -280,-58 -525,-112 -543,-120 -75,-36 -78,-94 -18,-390 161,-786 190,-922 207,-970 27,-71 95,-161 157,-206 83,-61 148,-80 287,-81 109,0 147,5 405,57 455,93 420,83 420,120 -1,39 -54,295 -64,305 -4,4 -159,-24 -344,-61 -185,-37 -354,-67 -374,-67 -65,0 -104,26 -131,89 -24,52 -63,218 -55,227 4,3 735,154 750,154 4,0 8,11 8,25 0,29 -58,306 -65,313 -3,3 -174,-28 -380,-70 -269,-54 -377,-72 -384,-64 -12,14 -74,326 -67,333 4,4 787,168 824,173 7,1 0,56 -17,135 -11,50 -25,116 -31,148 -11,55 -12,57 -43,56 -18,-1 -261,-49 -542,-106 z"
       id="path28"
       inkscape:connector-curvature="0" />
    <path
       d="m 10714,11215 c -151,-33 -263,-131 -323,-283 -41,-102 -311,-1161 -311,-1215 1,-51 11,-73 52,-105 17,-13 227,-72 257,-72 13,0 34,68 101,326 47,180 89,333 95,340 8,11 79,-5 365,-81 195,-52 364,-95 375,-95 18,0 25,19 58,148 37,145 44,192 30,192 -18,0 -725,189 -731,195 -9,9 34,170 59,223 25,51 70,82 119,82 19,0 181,-38 359,-85 179,-47 337,-85 351,-85 26,0 28,4 69,161 23,89 38,165 34,170 -12,11 -657,178 -732,189 -87,13 -153,11 -227,-5 z"
       id="path30"
       inkscape:connector-curvature="0" />
    <path
       d="m 6359,10562 c -86,-57 -249,-198 -249,-214 0,-10 134,-184 298,-386 164,-202 315,-390 335,-418 100,-139 118,-253 59,-377 -41,-88 -126,-173 -219,-218 -61,-31 -76,-34 -153,-34 -101,0 -170,27 -246,97 -26,23 -191,220 -367,436 -185,228 -326,392 -336,392 -22,0 -276,-207 -276,-224 0,-24 663,-832 747,-911 87,-82 180,-134 288,-161 50,-13 95,-15 195,-11 111,4 142,9 211,34 212,77 411,250 504,440 51,106 73,219 67,348 -6,133 -35,224 -106,330 -45,68 -683,858 -712,882 -12,10 -20,9 -40,-5 z"
       id="path32"
       inkscape:connector-curvature="0" />
    <path
       d="m 13075,10220 c -45,-15 -1550,-995 -1553,-1013 -4,-17 291,-187 325,-187 12,0 247,146 522,325 276,179 506,325 512,325 6,0 9,-8 7,-17 -32,-120 -133,-460 -139,-467 -4,-5 -31,10 -60,33 -28,22 -60,41 -70,41 -25,0 -299,-179 -299,-196 0,-11 173,-152 299,-243 l 23,-18 -47,-164 -47,-164 64,-59 c 182,-169 229,-208 241,-203 8,3 17,18 20,34 3,15 117,413 252,883 275,956 266,912 199,981 -90,92 -179,131 -249,109 z"
       id="path34"
       inkscape:connector-curvature="0" />
    <path
       d="m 9251,9260 c -873,-61 -1669,-383 -2346,-949 -132,-110 -425,-406 -425,-430 0,-19 187,-191 208,-191 6,0 71,61 144,136 439,450 936,762 1518,954 721,238 1490,252 2213,40 631,-184 1264,-571 1688,-1031 50,-54 98,-99 106,-99 8,0 33,17 56,39 23,21 68,60 99,87 31,27 57,55 57,63 1,22 -318,339 -462,459 -617,514 -1343,822 -2142,907 -173,19 -548,27 -714,15 z"
       id="path36"
       inkscape:connector-curvature="0" />
    <path
       d="m 10740,7016 c -437,-63 -785,-259 -1025,-577 -208,-277 -316,-600 -346,-1034 -35,-513 86,-1005 325,-1325 140,-187 371,-379 559,-464 308,-141 707,-187 1092,-126 832,131 1325,788 1325,1765 0,573 -158,1011 -482,1335 -213,213 -451,338 -772,406 -105,22 -152,26 -351,29 -160,3 -259,0 -325,-9 z m 355,-716 c 287,-32 498,-172 627,-417 101,-191 141,-374 141,-638 0,-267 -37,-437 -136,-630 -43,-83 -68,-116 -142,-190 -102,-102 -183,-154 -298,-190 -223,-71 -445,-54 -645,50 -166,86 -257,181 -346,361 -95,192 -132,392 -123,664 8,235 41,388 120,545 131,262 365,423 652,448 22,2 45,4 50,5 6,1 51,-3 100,-8 z"
       id="path38"
       inkscape:connector-curvature="0" />
    <path
       d="m 270,5245 0,-1705 1200,0 1200,0 0,365 0,365 -789,0 c -656,0 -790,2 -800,14 -8,9 -11,100 -9,312 l 3,299 718,3 717,2 0,360 0,360 -709,0 c -588,0 -710,2 -720,14 -8,9 -11,97 -9,302 l 3,289 783,3 782,2 0,360 0,360 -1185,0 -1185,0 0,-1705 z"
       id="path40"
       inkscape:connector-curvature="0" />
    <path
       d="m 3093,5788 3,-1163 23,-100 c 67,-296 172,-490 366,-673 276,-262 652,-386 1115,-369 686,25 1167,370 1325,950 54,198 55,220 55,1415 l 0,1102 -400,0 -399,0 -4,-1087 c -3,-962 -5,-1096 -20,-1154 -53,-215 -151,-351 -312,-430 -110,-54 -202,-72 -340,-66 -84,3 -129,11 -190,31 -183,62 -287,161 -361,344 -60,148 -57,99 -61,1280 l -4,1082 -400,0 -400,0 4,-1162 z"
       id="path42"
       inkscape:connector-curvature="0" />
    <path
       d="m 6430,5245 0,-1705 400,0 400,0 2,608 3,607 185,2 c 102,2 190,0 196,-5 5,-4 151,-261 323,-572 172,-311 324,-582 337,-602 l 24,-38 450,0 c 388,0 450,2 450,15 0,8 -166,314 -370,680 -203,366 -370,667 -370,669 0,2 31,24 69,49 330,219 501,529 501,909 0,308 -103,554 -318,760 -129,123 -257,200 -428,257 -203,67 -158,65 -1046,68 l -808,4 0,-1706 z m 1465,975 c 77,-12 172,-52 222,-94 43,-36 91,-137 101,-211 27,-213 -70,-364 -269,-416 -66,-17 -685,-25 -704,-9 -13,11 -15,67 -15,370 0,196 3,360 7,363 10,11 581,8 658,-3 z"
       id="path44"
       inkscape:connector-curvature="0" />
    <path
       d="m 13090,5245 0,-1705 400,0 400,0 2,568 3,567 375,6 c 322,6 388,9 470,27 502,106 817,414 901,882 20,111 18,384 -4,490 -41,193 -110,340 -218,466 -189,218 -411,338 -724,389 -74,12 -227,15 -847,15 l -758,0 0,-1705 z m 1466,963 c 74,-22 171,-76 201,-112 14,-17 40,-60 57,-96 26,-55 31,-80 34,-161 10,-227 -90,-364 -300,-414 -82,-19 -627,-22 -646,-3 -9,9 -12,112 -12,403 0,216 3,395 8,399 4,4 142,6 307,3 229,-3 312,-8 351,-19 z"
       id="path46"
       inkscape:connector-curvature="0" />
    <path
       d="m 16651,6927 c -5,-13 -313,-773 -685,-1690 -372,-916 -676,-1673 -676,-1681 0,-15 46,-16 451,-14 l 451,3 119,309 c 65,170 122,313 127,318 4,4 298,7 653,6 l 644,-3 121,-315 121,-315 457,-3 c 347,-2 456,1 456,10 0,15 -1360,3369 -1373,3386 -7,9 -106,12 -433,12 l -424,0 -9,-23 z m 619,-1532 c 95,-247 175,-458 177,-467 5,-17 -17,-18 -355,-18 -199,0 -363,4 -366,8 -3,5 73,216 169,468 97,252 178,466 181,474 5,13 6,13 14,0 4,-8 86,-217 180,-465 z"
       id="path48"
       inkscape:connector-curvature="0" />
    <path
       d="m 10390,2569 c -237,-27 -479,-144 -645,-313 -142,-143 -230,-303 -283,-515 -24,-97 -26,-123 -26,-306 0,-183 2,-209 26,-305 54,-215 133,-355 283,-506 103,-103 182,-160 302,-216 220,-103 542,-132 821,-73 234,49 438,167 616,356 l 86,92 0,378 0,379 -580,0 -580,0 0,-210 0,-210 323,0 c 238,0 326,-3 335,-12 7,-7 12,-35 12,-64 0,-50 -2,-54 -56,-103 -151,-138 -400,-194 -614,-136 -92,24 -215,91 -273,148 -65,63 -140,209 -162,312 -19,93 -19,268 1,358 61,278 296,477 563,477 89,0 169,-18 250,-57 102,-49 159,-108 213,-222 24,-50 48,-91 53,-91 6,0 116,31 245,69 233,68 235,69 238,97 4,38 -39,152 -90,238 -49,84 -181,223 -262,278 -193,132 -495,191 -796,157 z"
       id="path50"
       inkscape:connector-curvature="0" />
    <path
       d="m 3640,1440 0,-1100 775,0 775,0 0,240 0,240 -503,0 c -378,0 -506,3 -515,12 -9,9 -12,214 -12,860 l 0,848 -260,0 -260,0 0,-1100 z"
       id="path52"
       inkscape:connector-curvature="0" />
    <path
       d="m 5400,1440 0,-1100 775,0 775,0 0,240 0,240 -504,0 c -416,0 -506,2 -515,14 -8,9 -11,69 -9,192 l 3,179 458,3 457,2 0,240 0,240 -449,0 c -369,0 -451,2 -460,14 -8,9 -11,66 -9,182 l 3,169 498,3 497,2 0,240 0,240 -760,0 -760,0 0,-1100 z"
       id="path54"
       inkscape:connector-curvature="0" />
    <path
       d="M 8021,2518 C 8016,2505 7818,2017 7581,1433 7344,849 7150,364 7150,356 c 0,-14 33,-16 290,-16 281,0 290,1 300,20 6,12 41,98 77,193 36,95 70,178 75,185 8,9 103,12 414,12 386,0 404,-1 413,-19 6,-10 41,-97 77,-192 37,-96 71,-180 77,-186 7,-10 79,-13 298,-13 l 289,0 0,22 c 0,22 -854,2141 -873,2166 -7,9 -76,12 -283,12 l -274,0 -9,-22 z m 403,-1003 c 57,-148 101,-273 99,-277 -6,-10 -430,-10 -437,0 -3,6 116,330 210,572 8,20 4,29 128,-295 z"
       id="path56"
       inkscape:connector-curvature="0" />
    <path
       d="m 11773,1778 c 3,-754 3,-764 25,-848 78,-294 296,-509 597,-590 121,-33 414,-39 545,-12 251,52 456,189 570,382 45,75 94,215 109,310 7,41 11,333 11,793 l 0,727 -260,0 -259,0 -4,-707 c -3,-761 -2,-746 -56,-851 -98,-192 -347,-256 -556,-143 -78,42 -127,100 -167,200 l -23,56 -3,723 -3,722 -265,0 -265,0 4,-762 z"
       id="path58"
       inkscape:connector-curvature="0" />
    <path
       d="m 13882,1443 3,-1098 775,0 775,0 3,238 2,237 -504,0 c -416,0 -506,2 -515,14 -8,9 -11,69 -9,192 l 3,179 458,3 457,2 0,240 0,240 -449,0 c -369,0 -451,2 -460,14 -8,9 -11,66 -9,182 l 3,169 498,3 497,2 0,240 0,240 -765,0 -765,0 2,-1097 z"
       id="path60"
       inkscape:connector-curvature="0" />
  </g>
</svg>
